<svg xmlns="http://www.w3.org/2000/svg" xmlns:xlink="http://www.w3.org/1999/xlink" width="150" height="34.385" viewBox="0 0 150 34.385">
  <defs>
    <linearGradient id="linear-gradient" x1="0.5" x2="0.5" y2="1" gradientUnits="objectBoundingBox">
      <stop offset="0" stop-color="#00b4ec"/>
      <stop offset="1" stop-color="#4bb23f"/>
    </linearGradient>
  </defs>
  <g id="logo_black" transform="translate(-30 66.648)">
    <path id="合体_1" data-name="合体 1" d="M6.624,33.668a2.4,2.4,0,0,1,0-3.46l10-9.743-4.114-4.007a2.4,2.4,0,0,1,0-3.46,2.561,2.561,0,0,1,3.551,0L27.842,24.472a2.4,2.4,0,0,1,0,3.46,2.559,2.559,0,0,1-3.551,0l-4.113-4.007-10,9.742a2.557,2.557,0,0,1-3.551,0ZM8.3,23.02.735,15.649A2.409,2.409,0,0,1,0,13.945v-.053a2.411,2.411,0,0,1,.735-1.7L12.513.715A2.538,2.538,0,0,1,14.252,0h.076a2.53,2.53,0,0,1,1.737.715L27.842,12.188a2.4,2.4,0,0,1,0,3.46,2.56,2.56,0,0,1-3.551,0l-10-9.743L6.063,13.919l5.792,5.642a2.4,2.4,0,0,1,0,3.46,2.558,2.558,0,0,1-3.551,0Z" transform="translate(30 -66.648)" fill="url(#linear-gradient)"/>
    <g id="グループ_565" data-name="グループ 565" transform="translate(64.725 -58.493)">
      <path id="パス_2727" data-name="パス 2727" d="M98.36,28.376a9.074,9.074,0,0,1-.534,3.159,6.988,6.988,0,0,1-1.544,2.485,6.823,6.823,0,0,1-2.415,1.594,8.54,8.54,0,0,1-3.159.555,8.294,8.294,0,0,1-3.132-.563,6.907,6.907,0,0,1-3.952-4.079,9.033,9.033,0,0,1-.527-3.152,9.135,9.135,0,0,1,.534-3.187,6.945,6.945,0,0,1,1.53-2.472,6.75,6.75,0,0,1,2.415-1.579,9.139,9.139,0,0,1,6.29.007,6.8,6.8,0,0,1,3.967,4.072,9.115,9.115,0,0,1,.527,3.159m-3.848,0a5.748,5.748,0,0,0-1.032-3.65,3.35,3.35,0,0,0-2.773-1.306,3.435,3.435,0,0,0-1.98.583,3.694,3.694,0,0,0-1.32,1.72,7.007,7.007,0,0,0-.464,2.654A6.945,6.945,0,0,0,87.4,31a3.762,3.762,0,0,0,1.305,1.72,3.394,3.394,0,0,0,2,.6,3.344,3.344,0,0,0,2.773-1.312,5.731,5.731,0,0,0,1.032-3.63" transform="translate(-62.177 -14.883)" fill="#1a1311"/>
      <path id="パス_2728" data-name="パス 2728" d="M121.527,16.568h-4.549V31.522a2.752,2.752,0,0,1-.576,1.917,1.933,1.933,0,0,1-1.488.625,1.958,1.958,0,0,1-1.509-.632,2.732,2.732,0,0,1-.583-1.909V16.568h-4.549a2.3,2.3,0,0,1-1.587-.47,1.6,1.6,0,0,1-.52-1.243,1.576,1.576,0,0,1,.541-1.264,2.34,2.34,0,0,1,1.565-.464h13.254a2.328,2.328,0,0,1,1.607.478,1.606,1.606,0,0,1,.527,1.249,1.575,1.575,0,0,1-.534,1.243,2.358,2.358,0,0,1-1.6.47" transform="translate(-68.692 -12.777)" fill="#1a1311"/>
      <path id="パス_2729" data-name="パス 2729" d="M147.554,16.343h-9.393V21.4h8.649a2.06,2.06,0,0,1,1.425.428,1.455,1.455,0,0,1,.47,1.13,1.513,1.513,0,0,1-.463,1.145,2.012,2.012,0,0,1-1.432.443h-8.649V30.4h9.716a2.126,2.126,0,0,1,1.481.456,1.566,1.566,0,0,1,.5,1.215,1.53,1.53,0,0,1-.5,1.186,2.126,2.126,0,0,1-1.481.457H136.546a2.673,2.673,0,0,1-1.958-.6,2.7,2.7,0,0,1-.6-1.952V15.684a3.468,3.468,0,0,1,.266-1.467,1.659,1.659,0,0,1,.836-.829,3.512,3.512,0,0,1,1.452-.26h11.008a2.138,2.138,0,0,1,1.481.443,1.494,1.494,0,0,1,.484,1.158,1.511,1.511,0,0,1-.484,1.173,2.142,2.142,0,0,1-1.481.442" transform="translate(-76.55 -12.777)" fill="#1a1311"/>
      <path id="パス_2730" data-name="パス 2730" d="M194.591,15.166v5.9h9v-5.9a2.758,2.758,0,0,1,.568-1.9,1.917,1.917,0,0,1,1.5-.631,1.99,1.99,0,0,1,1.523.624,2.713,2.713,0,0,1,.583,1.9V31.384a2.71,2.71,0,0,1-.591,1.909,1.983,1.983,0,0,1-1.516.631,1.9,1.9,0,0,1-1.5-.639,2.8,2.8,0,0,1-.563-1.9V24.461h-9v6.922a2.713,2.713,0,0,1-.59,1.909,1.982,1.982,0,0,1-1.516.631,1.9,1.9,0,0,1-1.5-.639,2.807,2.807,0,0,1-.561-1.9V15.166a2.805,2.805,0,0,1,.554-1.9,1.906,1.906,0,0,1,1.51-.631,1.99,1.99,0,0,1,1.523.624,2.71,2.71,0,0,1,.582,1.9" transform="translate(-92.487 -12.639)" fill="#1a1311"/>
      <path id="パス_2731" data-name="パス 2731" d="M70.483,25.261a1.489,1.489,0,0,0-1.264.513,4.428,4.428,0,0,0-.66,1.327,5.384,5.384,0,0,1-1.875,2.618,5.076,5.076,0,0,1-3.039.891,5.267,5.267,0,0,1-2.893-.786,5.038,5.038,0,0,1-1.909-2.379,10.284,10.284,0,0,1-.675-3.994A8.836,8.836,0,0,1,59.693,17.9a4.922,4.922,0,0,1,4.092-1.951,5.287,5.287,0,0,1,1.727.277l2.077-2.861a9.9,9.9,0,0,0-3.833-.73,10.214,10.214,0,0,0-3.861.73A9.018,9.018,0,0,0,56.737,15.5a9.5,9.5,0,0,0-2.071,3.363,12.827,12.827,0,0,0-.723,4.451,14,14,0,0,0,.288,2.893,11.3,11.3,0,0,0,.864,2.562,10.252,10.252,0,0,0,1.389,2.169,8.218,8.218,0,0,0,2,1.72,8.319,8.319,0,0,0,2.422.962,13.189,13.189,0,0,0,2.963.309,9.525,9.525,0,0,0,3.762-.688,7.77,7.77,0,0,0,2.654-1.79A7.664,7.664,0,0,0,71.809,29.2a5.474,5.474,0,0,0,.484-2.128,1.729,1.729,0,0,0-.533-1.292,1.769,1.769,0,0,0-1.277-.52" transform="translate(-53.943 -12.639)" fill="#1a1311"/>
      <path id="パス_2732" data-name="パス 2732" d="M70.066,16.518a4.044,4.044,0,0,1,.99.48,6.293,6.293,0,0,1,1.916,2.289,5.226,5.226,0,0,0,.892,1.305,1.683,1.683,0,0,0,1.2.38,1.6,1.6,0,0,0,1.221-.548,1.8,1.8,0,0,0,.505-1.263,4.87,4.87,0,0,0-1.039-2.773,8.058,8.058,0,0,0-2.99-2.463c-.2-.1-.411-.181-.619-.268Z" transform="translate(-58.496 -12.926)" fill="url(#linear-gradient)"/>
      <path id="パス_2733" data-name="パス 2733" d="M169.286,30.611a5.265,5.265,0,0,1-2.892-.786,5.038,5.038,0,0,1-1.909-2.379,10.3,10.3,0,0,1-.674-3.994,8.841,8.841,0,0,1,1.523-5.547,4.925,4.925,0,0,1,4.093-1.951,4.682,4.682,0,0,1,2.717.758A6.275,6.275,0,0,1,174.06,19a5.246,5.246,0,0,0,.891,1.305,1.687,1.687,0,0,0,1.2.38,1.6,1.6,0,0,0,1.221-.548,1.805,1.805,0,0,0,.505-1.263A4.863,4.863,0,0,0,176.84,16.1a8.056,8.056,0,0,0-2.991-2.464,9.646,9.646,0,0,0-4.45-1,10.22,10.22,0,0,0-3.861.73,9.038,9.038,0,0,0-3.16,2.126,9.509,9.509,0,0,0-2.071,3.363,12.828,12.828,0,0,0-.723,4.451,13.947,13.947,0,0,0,.288,2.893,11.3,11.3,0,0,0,.863,2.562,10.257,10.257,0,0,0,1.391,2.169,8.2,8.2,0,0,0,2,1.72,8.327,8.327,0,0,0,2.422.962,13.187,13.187,0,0,0,2.962.309,9.548,9.548,0,0,0,3.764-.687,9.258,9.258,0,0,0,.932-.467l-3.276-2.379a5.889,5.889,0,0,1-1.645.22" transform="translate(-83.778 -12.639)" fill="#1a1311"/>
      <path id="パス_2734" data-name="パス 2734" d="M179.325,30.742a4.462,4.462,0,0,0-.66,1.327,5.383,5.383,0,0,1-1.874,2.618,4.542,4.542,0,0,1-1.395.672l3.276,2.379a7.272,7.272,0,0,0,1.721-1.323,7.641,7.641,0,0,0,1.523-2.247,5.488,5.488,0,0,0,.485-2.128,1.73,1.73,0,0,0-.534-1.292,1.767,1.767,0,0,0-1.278-.519,1.491,1.491,0,0,0-1.264.512" transform="translate(-88.244 -17.607)" fill="url(#linear-gradient)"/>
    </g>
  </g>
</svg>
