<svg xmlns="http://www.w3.org/2000/svg" width="50" height="50" viewBox="0 0 50 50">
  <g id="グループ_8656" data-name="グループ 8656" transform="translate(-197 -1248)">
    <rect id="長方形_2690" data-name="長方形 2690" width="50" height="50" rx="4" transform="translate(197 1248)" fill="#333"/>
    <g id="レイヤー_1" data-name="レイヤー 1" transform="translate(204 1256)">
      <path id="パス_1" data-name="パス 1" d="M29.61,18A11.61,11.61,0,1,0,18,29.61,11.61,11.61,0,0,0,29.61,18ZM29.385,4.815a1.867,1.867,0,1,0,1.328.543,1.867,1.867,0,0,0-1.328-.543ZM8.5,2.127h18.99a6.39,6.39,0,0,1,6.378,6.378v18.99a6.39,6.39,0,0,1-6.379,6.378H8.5A6.39,6.39,0,0,1,2.125,27.5V8.5a6.39,6.39,0,0,1,6.38-6.379ZM27.495,0H8.5A8.538,8.538,0,0,0,0,8.5v18.99A8.54,8.54,0,0,0,8.505,36h18.99a8.528,8.528,0,0,0,8.5-8.5V8.5A8.539,8.539,0,0,0,27.495,0ZM8.8,18A9.2,9.2,0,1,1,18,27.2,9.2,9.2,0,0,1,8.8,18Z" fill="#fff" fill-rule="evenodd"/>
    </g>
  </g>
</svg>
