<svg id="レイヤー_1" data-name="レイヤー 1" xmlns="http://www.w3.org/2000/svg" width="20" height="20" viewBox="0 0 20 20">
  <path id="パス_1" data-name="パス 1" d="M16.45,10A6.45,6.45,0,1,0,10,16.45,6.45,6.45,0,0,0,16.45,10Zm-.125-7.325a1.037,1.037,0,1,0,.738.3,1.038,1.038,0,0,0-.738-.3ZM4.725,1.182h10.55a3.55,3.55,0,0,1,3.543,3.543v10.55a3.55,3.55,0,0,1-3.544,3.543H4.725a3.55,3.55,0,0,1-3.544-3.543V4.725A3.55,3.55,0,0,1,4.725,1.181ZM15.275,0H4.725A4.743,4.743,0,0,0,0,4.725v10.55A4.744,4.744,0,0,0,4.725,20h10.55A4.738,4.738,0,0,0,20,15.275V4.725A4.744,4.744,0,0,0,15.275,0ZM4.887,10A5.113,5.113,0,1,1,10,15.113,5.112,5.112,0,0,1,4.887,10Z" fill="#333" fill-rule="evenodd"/>
</svg>
