<svg xmlns="http://www.w3.org/2000/svg" xmlns:xlink="http://www.w3.org/1999/xlink" width="155.559" height="50" viewBox="0 0 155.559 50">
  <defs>
    <clipPath id="clip-path">
      <rect id="長方形_24" data-name="長方形 24" width="155.559" height="50" fill="none"/>
    </clipPath>
  </defs>
  <g id="グループ_94" data-name="グループ 94" transform="translate(-405 -262)">
    <g id="グループ_21" data-name="グループ 21" transform="translate(405 262)">
      <g id="グループ_20" data-name="グループ 20" transform="translate(0 0)" clip-path="url(#clip-path)">
        <path id="パス_6" data-name="パス 6" d="M178.836,9.994a1.345,1.345,0,0,0,.935-.354,1.311,1.311,0,0,0,.385-.965V1.427a1.3,1.3,0,0,0-.385-.964,1.322,1.322,0,0,0-.935-.359,1.338,1.338,0,0,0-.935.356,1.306,1.306,0,0,0-.385.966V8.675a1.31,1.31,0,0,0,.385.965,1.351,1.351,0,0,0,.935.354" transform="translate(-97.514 -0.058)" fill="#fff"/>
        <path id="パス_7" data-name="パス 7" d="M133.761,2.39c.2-.007.255-.159.28-.3s.023-1.542,0-1.683-.078-.291-.279-.3h-7.036a.362.362,0,0,0-.372.37V9.663a.361.361,0,0,0,.372.372h7.035c.2-.009.255-.159.28-.3s.023-1.543,0-1.686-.078-.292-.279-.3h-4.556V6.126h4.168c.206-.008.259-.16.282-.3s.024-1.372,0-1.516-.076-.287-.278-.3h-4.172V2.39Z" transform="translate(-69.41 -0.058)" fill="#fff"/>
        <path id="パス_8" data-name="パス 8" d="M150.6,0c-3.257,0-3.862.069-3.885.073-.251.032-.375.155-.375.373V9.58c0,.22.124.343.375.373.023,0,.628.07,3.885.07.755,0,5.357-.11,5.357-5.01S151.355,0,150.6,0m-.218,7.693-1.19-.026V2.358l1.19-.026c.926,0,2.737.066,2.737,2.681s-1.811,2.68-2.737,2.68" transform="translate(-80.389 0)" fill="#fff"/>
        <path id="パス_9" data-name="パス 9" d="M204.883,10.629c-.009-.255-.2-.32-.375-.347s-1.927-.03-2.106,0-.361.093-.372.346v3.679a6.381,6.381,0,0,0,.182,1.683s-4.411-5.328-4.441-5.358a1.191,1.191,0,0,0-.494-.315,12.662,12.662,0,0,0-1.958-.031.374.374,0,0,0-.372.344v9.189c.008.255.2.322.375.35s1.926.03,2.1,0,.362-.1.376-.347v-3.68a6.332,6.332,0,0,0-.184-1.683s4.411,5.33,4.439,5.359a1.227,1.227,0,0,0,.494.316,12.916,12.916,0,0,0,1.958.032.378.378,0,0,0,.375-.347Z" transform="translate(-107.09 -5.636)" fill="#fff"/>
        <path id="パス_10" data-name="パス 10" d="M179.173,14.611a5.655,5.655,0,0,0-1.736-4.143,1.357,1.357,0,0,0-1.868.012,1.4,1.4,0,0,0,.016,1.871,3.175,3.175,0,1,1-4.455,0,1.4,1.4,0,0,0,.018-1.871,1.361,1.361,0,0,0-1.872-.012,5.684,5.684,0,0,0-1.731,4.143,5.814,5.814,0,1,0,11.628,0" transform="translate(-92.037 -5.552)" fill="#fff"/>
        <rect id="長方形_16" data-name="長方形 16" width="15.016" height="0.75" transform="translate(30.002 44.822)" fill="#fff"/>
        <rect id="長方形_17" data-name="長方形 17" width="13.515" height="0.75" transform="translate(31.503 46.324)" fill="#fff"/>
        <rect id="長方形_18" data-name="長方形 18" width="12.014" height="0.75" transform="translate(33.005 47.825)" fill="#fff"/>
        <rect id="長方形_19" data-name="長方形 19" width="15.016" height="0.75" transform="translate(109.721 44.822)" fill="#fff"/>
        <rect id="長方形_20" data-name="長方形 20" width="13.515" height="0.75" transform="translate(109.721 46.324)" fill="#fff"/>
        <rect id="長方形_21" data-name="長方形 21" width="12.014" height="0.75" transform="translate(109.721 47.825)" fill="#fff"/>
        <path id="パス_11" data-name="パス 11" d="M164.056,46.794c.37-.012.466-.291.512-.551s.045-2.822,0-3.083-.142-.532-.511-.551H151.172a.66.66,0,0,0-.681.679V60.115a.661.661,0,0,0,.681.681h12.884c.37-.016.466-.291.512-.546s.045-2.828,0-3.089-.142-.535-.511-.548h-8.344V53.637h7.635c.376-.016.473-.3.515-.55s.045-2.512,0-2.775-.139-.528-.509-.547h-7.641v-2.97Z" transform="translate(-82.669 -23.406)" fill="#fff"/>
        <path id="パス_12" data-name="パス 12" d="M13.452,44.513A5.76,5.76,0,0,0,11.4,43.126a7.833,7.833,0,0,0-2.99-.516H.726A.727.727,0,0,0,0,43.336V60.423a.728.728,0,0,0,.726.726H4.1a.728.728,0,0,0,.726-.726V54.847H8.409a7.842,7.842,0,0,0,2.99-.516,5.736,5.736,0,0,0,2.052-1.387,5.357,5.357,0,0,0,1.163-1.987,7.2,7.2,0,0,0,0-4.472,5.366,5.366,0,0,0-1.163-1.973m-3.409,3.093a2.934,2.934,0,0,1,0,2.247,1.6,1.6,0,0,1-.578.62,2.528,2.528,0,0,1-.909.318,7.785,7.785,0,0,1-1.2.091H4.827V46.576H7.35a7.713,7.713,0,0,1,1.2.091,2.527,2.527,0,0,1,.911.318,1.6,1.6,0,0,1,.578.62" transform="translate(0 -23.407)" fill="#fff"/>
        <path id="パス_13" data-name="パス 13" d="M124.991,53.324h-3.109a.71.71,0,0,0-.7.609,4.247,4.247,0,0,1-1.014,2.272,2.931,2.931,0,0,1-2.291.878,3.86,3.86,0,0,1-1.881-.42,3.6,3.6,0,0,1-1.245-1.131,5.112,5.112,0,0,1-.718-1.643,8.08,8.08,0,0,1-.233-1.942,8.757,8.757,0,0,1,.234-2.027,5.194,5.194,0,0,1,.72-1.689,3.521,3.521,0,0,1,1.243-1.138,3.845,3.845,0,0,1,1.881-.422,3.38,3.38,0,0,1,1.143.2,3.336,3.336,0,0,1,.976.543,3.283,3.283,0,0,1,.717.809,2.545,2.545,0,0,1,.326.818.709.709,0,0,0,.7.573h3.109a.719.719,0,0,0,.712-.821,7.174,7.174,0,0,0-.821-2.481A6.787,6.787,0,0,0,123,44.272a7.662,7.662,0,0,0-2.357-1.241,9.476,9.476,0,0,0-6.429.3,7.941,7.941,0,0,0-2.763,2,8.869,8.869,0,0,0-1.715,2.968,11.011,11.011,0,0,0-.59,3.648,10.636,10.636,0,0,0,.592,3.581,8.655,8.655,0,0,0,1.717,2.921,7.924,7.924,0,0,0,2.763,1.965,9.1,9.1,0,0,0,3.657.71,8.8,8.8,0,0,0,3.008-.5,7.1,7.1,0,0,0,2.419-1.462,7.337,7.337,0,0,0,1.662-2.314,8.942,8.942,0,0,0,.743-2.726.72.72,0,0,0-.714-.8" transform="translate(-59.957 -23.406)" fill="#fff"/>
        <path id="パス_14" data-name="パス 14" d="M50.45,42.609H37.787a.725.725,0,0,0-.724.722v17.1a.725.725,0,0,0,.724.723h12.66a.724.724,0,0,0,.722-.723V57.662a.725.725,0,0,0-.722-.724H41.892V53.592h7.8a.723.723,0,0,0,.722-.724V50.349a.723.723,0,0,0-.722-.723h-7.8v-2.8H50.45a.725.725,0,0,0,.724-.724V43.331a.725.725,0,0,0-.724-.722" transform="translate(-20.36 -23.406)" fill="#fff"/>
        <path id="パス_15" data-name="パス 15" d="M248.525,42.051a2.416,2.416,0,0,0-2.413,2.413V58.7a2.413,2.413,0,1,0,4.827,0V44.464a2.416,2.416,0,0,0-2.413-2.413" transform="translate(-135.196 -23.1)" fill="#fff"/>
        <path id="パス_16" data-name="パス 16" d="M280.366,42.609h-3.736a.753.753,0,0,0-.775.726V53.508l-7.867-10.589a.789.789,0,0,0-.635-.31h-3.826a.752.752,0,0,0-.773.726V60.424a.752.752,0,0,0,.773.726h3.737a.752.752,0,0,0,.773-.726V50.277l7.839,10.564a.79.79,0,0,0,.635.31h3.854a.753.753,0,0,0,.775-.726V43.335a.753.753,0,0,0-.775-.726" transform="translate(-144.338 -23.406)" fill="#fff"/>
        <path id="パス_17" data-name="パス 17" d="M323.794,50.422h-6.752a.723.723,0,0,0-.722.721v2.341a.723.723,0,0,0,.722.721h3.017a3.4,3.4,0,0,1-.969,1.927,3.678,3.678,0,0,1-2.578.823,3.959,3.959,0,0,1-1.936-.434,3.685,3.685,0,0,1-1.282-1.163,5.236,5.236,0,0,1-.739-1.69,8.316,8.316,0,0,1-.24-1.994,9.023,9.023,0,0,1,.24-2.082,5.385,5.385,0,0,1,.74-1.737,3.648,3.648,0,0,1,1.28-1.171,3.962,3.962,0,0,1,1.936-.434,3.29,3.29,0,0,1,2.05.626,3.044,3.044,0,0,1,1.081,1.729.723.723,0,0,0,.694.536H323.5a.726.726,0,0,0,.718-.818,6.827,6.827,0,0,0-.823-2.506,6.925,6.925,0,0,0-1.775-2.046,7.8,7.8,0,0,0-2.389-1.247,8.893,8.893,0,0,0-2.714-.42,9.23,9.23,0,0,0-3.751.74,8.136,8.136,0,0,0-2.829,2.051,9.106,9.106,0,0,0-1.757,3.04,11.287,11.287,0,0,0-.6,3.738,10.909,10.909,0,0,0,.606,3.669,8.882,8.882,0,0,0,1.759,2.993,8.114,8.114,0,0,0,2.83,2.012,9.338,9.338,0,0,0,3.747.728,6.846,6.846,0,0,0,2.67-.557,5.649,5.649,0,0,0,1.772-1.217l.159.988a.721.721,0,0,0,.707.582h1.973a.722.722,0,0,0,.721-.721V51.143a.722.722,0,0,0-.721-.721" transform="translate(-168.957 -23.129)" fill="#fff"/>
        <path id="パス_18" data-name="パス 18" d="M88.647,60.167,82.185,43.079a.732.732,0,0,0-.681-.469H77.969a.732.732,0,0,0-.681.469L70.826,60.167a.726.726,0,0,0,.681.982h3.361a.725.725,0,0,0,.685-.485l1.209-3.43h5.951l1.209,3.43a.725.725,0,0,0,.685.485h3.361a.726.726,0,0,0,.681-.982m-8.91-6.774H78.11l1.626-4.58,1.626,4.58Z" transform="translate(-38.881 -23.407)" fill="#fff"/>
        <path id="パス_19" data-name="パス 19" d="M190.037,42.893a.72.72,0,0,1,.576-.283h3.351a.722.722,0,0,1,.708.562l2.315,9.953,2.543-9.968a.727.727,0,0,1,.7-.547H203.4a.726.726,0,0,1,.7.547l2.543,9.968,2.315-9.953a.722.722,0,0,1,.708-.562h3.351a.726.726,0,0,1,.7.912l-4.523,17.087a.729.729,0,0,1-.7.542H204.97a.726.726,0,0,1-.706-.555l-2.431-9.93-.014-.054-.014.054-2.432,9.93a.725.725,0,0,1-.7.555h-3.533a.726.726,0,0,1-.7-.542L189.91,43.522a.722.722,0,0,1,.127-.629" transform="translate(-104.309 -23.407)" fill="#fff"/>
        <path id="パス_20" data-name="パス 20" d="M110.457,98.2h2.526V95.6h1.748v6.726h-1.748V99.557h-2.524v2.773h-1.748V95.6h1.748Z" transform="translate(-59.717 -52.518)" fill="#fff"/>
        <rect id="長方形_22" data-name="長方形 22" width="1.748" height="6.726" transform="translate(56.423 43.086)" fill="#fff"/>
        <path id="パス_21" data-name="パス 21" d="M137.8,102.33H135.62l-1.668-2.586v2.586H132.2V95.6h2.721a2.665,2.665,0,0,1,.981.166,1.84,1.84,0,0,1,1.1,1.11,2.282,2.282,0,0,1,.139.8,1.974,1.974,0,0,1-.371,1.245,1.864,1.864,0,0,1-1.093.647Zm-3.845-3.719h.33a1.274,1.274,0,0,0,.794-.214.822.822,0,0,0,0-1.232,1.274,1.274,0,0,0-.794-.213h-.33Z" transform="translate(-72.623 -52.518)" fill="#fff"/>
        <path id="パス_22" data-name="パス 22" d="M145.565,98.739a3.514,3.514,0,0,1,.276-1.4,3.46,3.46,0,0,1,.767-1.129,3.505,3.505,0,0,1,1.174-.753,4.276,4.276,0,0,1,3,0,3.571,3.571,0,0,1,1.182.753,3.456,3.456,0,0,1,.771,1.129,3.65,3.65,0,0,1,0,2.792,3.448,3.448,0,0,1-.772,1.128,3.548,3.548,0,0,1-1.18.754,4.3,4.3,0,0,1-3,0,3.478,3.478,0,0,1-2.217-3.279m1.829,0a1.793,1.793,0,0,0,.151.74,1.858,1.858,0,0,0,.411.589,1.834,1.834,0,0,0,.6.388,1.974,1.974,0,0,0,1.454,0,1.876,1.876,0,0,0,.606-.388,1.827,1.827,0,0,0,.415-.589,1.765,1.765,0,0,0,.151-.74,1.814,1.814,0,0,0-.151-.741,1.879,1.879,0,0,0-.415-.589,1.967,1.967,0,0,0-2.06-.388,1.856,1.856,0,0,0-1.013.977,1.8,1.8,0,0,0-.151.741" transform="translate(-79.963 -52.289)" fill="#fff"/>
        <path id="パス_23" data-name="パス 23" d="M167.87,97.1a2.154,2.154,0,0,0-.57-.343,1.526,1.526,0,0,0-.554-.112.9.9,0,0,0-.553.16.5.5,0,0,0-.214.42.41.41,0,0,0,.106.294.921.921,0,0,0,.282.2,2.316,2.316,0,0,0,.392.147q.218.063.433.135a2.687,2.687,0,0,1,1.253.763,1.881,1.881,0,0,1,.4,1.244,2.4,2.4,0,0,1-.175.937,1.954,1.954,0,0,1-.508.718,2.324,2.324,0,0,1-.821.463,3.411,3.411,0,0,1-1.1.166,4.056,4.056,0,0,1-2.364-.758l.749-1.41a3.065,3.065,0,0,0,.776.517,1.868,1.868,0,0,0,.758.17.906.906,0,0,0,.638-.2.6.6,0,0,0,.21-.446.616.616,0,0,0-.054-.263.59.59,0,0,0-.178-.206,1.4,1.4,0,0,0-.326-.173q-.2-.08-.485-.179c-.227-.072-.449-.15-.666-.236a2.086,2.086,0,0,1-.58-.343,1.594,1.594,0,0,1-.411-.54,1.914,1.914,0,0,1-.156-.825,2.406,2.406,0,0,1,.166-.906,1.979,1.979,0,0,1,.464-.695,2.043,2.043,0,0,1,.731-.45,2.753,2.753,0,0,1,.968-.162,4.208,4.208,0,0,1,1.044.139,4.586,4.586,0,0,1,1.043.406Z" transform="translate(-90.02 -52.289)" fill="#fff"/>
        <path id="パス_24" data-name="パス 24" d="M179.083,98.2h2.525V95.6h1.748v6.726h-1.75V99.557h-2.524v2.773h-1.748V95.6h1.748Z" transform="translate(-97.415 -52.518)" fill="#fff"/>
        <rect id="長方形_23" data-name="長方形 23" width="1.748" height="6.726" transform="translate(87.351 43.086)" fill="#fff"/>
        <path id="パス_25" data-name="パス 25" d="M200.156,102.33,201.3,95.6h1.732l1.346,3.586,1.338-3.586h1.731l1.142,6.726h-1.74l-.58-3.872-1.589,3.872h-.7l-1.508-3.872-.58,3.872Z" transform="translate(-109.951 -52.518)" fill="#fff"/>
        <path id="パス_26" data-name="パス 26" d="M224.652,101.162h-2.5l-.4,1.169h-1.865l2.561-6.727h1.91l2.56,6.727h-1.865Zm-.464-1.33-.786-2.239-.785,2.239Z" transform="translate(-120.79 -52.517)" fill="#fff"/>
      </g>
    </g>
  </g>
</svg>
